
      <svg data-logo="logo" xmlns="http://www.w3.org/2000/svg" width='150' height="30" viewBox="0 0 241 42">
        <g id="logogram" transform="translate(0, 1) rotate(0) "><path d="M13.0964 20.3536L17.6262 22.4473L17.046 27.6527L8.94876 36.8282C4.2486 33.8023 0.898178 28.8615 0 23.108L13.0964 20.3536Z" fill="#15E3FF"/><path d="M25.183 25.94L31.2414 36.3789C27.992 38.6605 24.0331 40 19.7612 40C18.3744 40 17.0206 39.8587 15.7133 39.59L17.046 27.6527L20.4765 23.7656L25.183 25.94Z" fill="#348DFC"/><path d="M39.1022 14.881C39.5332 16.5143 39.763 18.2294 39.763 19.9982C39.763 24.1145 38.5192 27.9403 36.3874 31.1207L25.184 25.9405L22.5551 21.4123L25.8574 17.6692L39.1022 14.881Z" fill="#FD4873"/><path d="M17.046 27.6524L17.0458 27.6527L17.1686 26.552L17.046 27.6524Z" fill="#FFC700"/><path d="M20.132 0C26.1505 0.109415 31.5194 2.877 35.1148 7.17842L25.8561 17.6694L20.9792 18.6959L18.519 14.4574L20.132 0Z" fill="#FFC700"/><path d="M18.519 14.4574L17.9745 19.3269L13.0991 20.353L0.514709 14.5347C2.09964 8.94044 6.05794 4.3436 11.2327 1.9007L18.519 14.4574Z" fill="#00E7B9"/></g>
        <g id="logotype" transform="translate(46, 8)"><path fill="#df1616" d="M19.64 26L13.67 26L6.84 0.54L12.53 0.54L15.48 13.06Q15.84 14.64 16.14 16.42Q16.44 18.21 16.73 20.01Q17.02 21.81 17.30 23.47L17.30 23.47L16.37 23.47Q16.68 21.81 16.99 20.01Q17.30 18.21 17.62 16.42Q17.95 14.64 18.34 13.06L18.34 13.06L21.45 0.54L26.87 0.54L29.96 13.06Q30.35 14.64 30.68 16.42Q31.00 18.21 31.32 20.01Q31.63 21.81 31.94 23.47L31.94 23.47L30.99 23.47Q31.28 21.81 31.56 20.01Q31.84 18.21 32.16 16.42Q32.47 14.64 32.81 13.06L32.81 13.06L35.77 0.54L41.48 0.54L34.63 26L28.68 26L25.29 12.98Q24.75 10.81 24.36 8.27Q23.98 5.73 23.50 3.07L23.50 3.07L24.80 3.07Q24.27 5.68 23.94 8.18Q23.60 10.67 23.00 12.98L23.00 12.98L19.64 26ZM50.77 26.38L50.77 26.38Q47.90 26.38 45.80 25.14Q43.70 23.90 42.56 21.68Q41.43 19.47 41.43 16.53L41.43 16.53Q41.43 13.56 42.56 11.35Q43.70 9.13 45.80 7.89Q47.90 6.65 50.77 6.65L50.77 6.65Q53.66 6.65 55.76 7.89Q57.85 9.13 58.99 11.35Q60.12 13.56 60.12 16.53L60.12 16.53Q60.12 19.47 58.99 21.68Q57.85 23.90 55.76 25.14Q53.66 26.38 50.77 26.38ZM50.77 22.34L50.77 22.34Q52.14 22.34 53.06 21.58Q53.99 20.82 54.45 19.50Q54.91 18.17 54.91 16.52L54.91 16.52Q54.91 14.82 54.45 13.51Q53.99 12.19 53.06 11.44Q52.14 10.69 50.77 10.69L50.77 10.69Q49.41 10.69 48.49 11.44Q47.58 12.19 47.12 13.51Q46.65 14.82 46.65 16.52L46.65 16.52Q46.65 18.17 47.12 19.50Q47.58 20.82 48.49 21.58Q49.41 22.34 50.77 22.34ZM66.55 26L61.42 26L61.42 6.89L66.37 6.89L66.37 10.23L66.58 10.23Q67.11 8.45 68.35 7.54Q69.59 6.64 71.19 6.64L71.19 6.64Q71.59 6.64 72.04 6.68Q72.49 6.72 72.85 6.81L72.85 6.81L72.85 11.39Q72.51 11.27 71.86 11.20Q71.21 11.13 70.63 11.13L70.63 11.13Q69.47 11.13 68.53 11.64Q67.59 12.14 67.07 13.04Q66.55 13.93 66.55 15.13L66.55 15.13L66.55 26ZM73.40 0.54L78.52 0.54L78.52 26L73.40 26L73.40 0.54ZM87.60 26.32L87.60 26.32Q85.39 26.32 83.62 25.19Q81.85 24.05 80.83 21.86Q79.80 19.66 79.80 16.48L79.80 16.48Q79.80 13.22 80.86 11.03Q81.92 8.84 83.68 7.75Q85.44 6.65 87.56 6.65L87.56 6.65Q89.19 6.65 90.26 7.20Q91.34 7.75 92.00 8.55Q92.67 9.35 93.00 10.11L93.00 10.11L93.17 10.11L93.17 0.54L98.29 0.54L98.29 26L93.25 26L93.25 22.94L93.00 22.94Q92.65 23.71 91.98 24.49Q91.30 25.27 90.23 25.79Q89.15 26.32 87.60 26.32ZM89.17 22.21L89.17 22.21Q90.47 22.21 91.39 21.49Q92.31 20.77 92.79 19.48Q93.27 18.19 93.27 16.46L93.27 16.46Q93.27 14.72 92.80 13.45Q92.33 12.17 91.41 11.47Q90.48 10.76 89.17 10.76L89.17 10.76Q87.82 10.76 86.90 11.49Q85.99 12.23 85.53 13.51Q85.07 14.79 85.07 16.46L85.07 16.46Q85.07 18.14 85.54 19.44Q86.01 20.74 86.92 21.47Q87.84 22.21 89.17 22.21ZM107.28 4.86L99.49 4.86L99.49 0.54L120.29 0.54L120.29 4.86L112.51 4.86L112.51 26L107.28 26L107.28 4.86ZM126.61 26L121.48 26L121.48 6.89L126.44 6.89L126.44 10.23L126.64 10.23Q127.17 8.45 128.41 7.54Q129.65 6.64 131.26 6.64L131.26 6.64Q131.65 6.64 132.10 6.68Q132.56 6.72 132.91 6.81L132.91 6.81L132.91 11.39Q132.57 11.27 131.92 11.20Q131.27 11.13 130.69 11.13L130.69 11.13Q129.53 11.13 128.59 11.64Q127.65 12.14 127.13 13.04Q126.61 13.93 126.61 15.13L126.61 15.13L126.61 26ZM138.79 26.38L138.79 26.38Q136.98 26.38 135.54 25.74Q134.09 25.09 133.26 23.82Q132.43 22.55 132.43 20.65L132.43 20.65Q132.43 19.06 133.02 17.98Q133.61 16.91 134.63 16.26Q135.65 15.61 136.94 15.27Q138.23 14.93 139.65 14.79L139.65 14.79Q141.30 14.62 142.32 14.47Q143.34 14.33 143.81 14.01Q144.28 13.70 144.28 13.08L144.28 13.08L144.28 12.99Q144.28 12.17 143.93 11.61Q143.59 11.05 142.93 10.75Q142.26 10.45 141.29 10.45L141.29 10.45Q140.29 10.45 139.56 10.75Q138.82 11.05 138.36 11.54Q137.90 12.04 137.68 12.65L137.68 12.65L132.98 11.87Q133.48 10.21 134.62 9.05Q135.77 7.88 137.47 7.27Q139.17 6.65 141.29 6.65L141.29 6.65Q142.84 6.65 144.29 7.02Q145.75 7.39 146.90 8.16Q148.05 8.93 148.73 10.16Q149.40 11.39 149.40 13.13L149.40 13.13L149.40 26L144.55 26L144.55 23.35L144.38 23.35Q143.92 24.24 143.15 24.91Q142.38 25.59 141.29 25.98Q140.21 26.38 138.79 26.38ZM140.24 22.77L140.24 22.77Q141.46 22.77 142.37 22.29Q143.29 21.81 143.80 20.99Q144.31 20.17 144.31 19.16L144.31 19.16L144.31 17.10Q144.09 17.27 143.63 17.40Q143.17 17.54 142.60 17.64Q142.04 17.75 141.49 17.83Q140.94 17.92 140.52 17.97L140.52 17.97Q139.58 18.10 138.86 18.41Q138.14 18.72 137.75 19.22Q137.36 19.73 137.36 20.51L137.36 20.51Q137.36 21.25 137.73 21.75Q138.11 22.26 138.75 22.51Q139.39 22.77 140.24 22.77ZM162.71 26L156.89 26L149.85 6.89L155.30 6.89L158.51 16.81Q159.09 18.67 159.53 20.57Q159.96 22.46 160.42 24.50L160.42 24.50L159.33 24.50Q159.78 22.46 160.20 20.57Q160.63 18.67 161.21 16.81L161.21 16.81L164.39 6.89L169.77 6.89L162.71 26ZM178.85 26.38L178.85 26.38Q175.92 26.38 173.80 25.18Q171.68 23.98 170.55 21.78Q169.41 19.57 169.41 16.55L169.41 16.55Q169.41 13.59 170.54 11.37Q171.67 9.15 173.74 7.90Q175.80 6.65 178.59 6.65L178.59 6.65Q180.47 6.65 182.09 7.25Q183.72 7.85 184.95 9.06Q186.18 10.26 186.87 12.07Q187.56 13.88 187.56 16.34L187.56 16.34L187.56 17.78L171.51 17.78L171.51 14.57L185.05 14.57L182.66 15.42Q182.66 13.93 182.20 12.83Q181.75 11.73 180.85 11.12Q179.96 10.52 178.62 10.52L178.62 10.52Q177.31 10.52 176.38 11.13Q175.44 11.75 174.97 12.80Q174.49 13.85 174.49 15.20L174.49 15.20L174.49 17.47Q174.49 19.13 175.04 20.26Q175.60 21.39 176.60 21.95Q177.60 22.51 178.93 22.51L178.93 22.51Q179.84 22.51 180.57 22.26Q181.31 22.00 181.83 21.50Q182.35 20.99 182.62 20.26L182.62 20.26L187.27 21.13Q186.81 22.70 185.66 23.89Q184.52 25.08 182.80 25.73Q181.08 26.38 178.85 26.38ZM188.79 0.54L193.92 0.54L193.92 26L188.79 26L188.79 0.54Z"/></g>
        
      </svg>
    